<?xml version="1.0" encoding="UTF-8" standalone="no"?>
<!-- Created with Inkscape (http://www.inkscape.org/) -->

<svg
   xmlns:dc="http://purl.org/dc/elements/1.1/"
   xmlns:cc="http://creativecommons.org/ns#"
   xmlns:rdf="http://www.w3.org/1999/02/22-rdf-syntax-ns#"
   xmlns:svg="http://www.w3.org/2000/svg"
   xmlns="http://www.w3.org/2000/svg"
   xmlns:sodipodi="http://sodipodi.sourceforge.net/DTD/sodipodi-0.dtd"
   xmlns:inkscape="http://www.inkscape.org/namespaces/inkscape"
   width="531.4715"
   height="348.90872"
   id="svg2"
   version="1.1"
   inkscape:version="0.91 r13725"
   inkscape:export-filename="/home/nessa/fake_food_1.png"
   inkscape:export-xdpi="90.005516"
   inkscape:export-ydpi="90.005516"
   sodipodi:docname="fake_food_2.svg">
  <defs
     id="defs4" />
  <sodipodi:namedview
     id="base"
     pagecolor="#ffffff"
     bordercolor="#666666"
     borderopacity="1.0"
     inkscape:pageopacity="0.0"
     inkscape:pageshadow="2"
     inkscape:zoom="0.98994949"
     inkscape:cx="227.75262"
     inkscape:cy="227.22101"
     inkscape:document-units="px"
     inkscape:current-layer="layer1"
     showgrid="false"
     inkscape:window-width="1366"
     inkscape:window-height="704"
     inkscape:window-x="0"
     inkscape:window-y="27"
     inkscape:window-maximized="1"
     fit-margin-top="0"
     fit-margin-left="0"
     fit-margin-right="0"
     fit-margin-bottom="0" />
  <metadata
     id="metadata7">
    <rdf:RDF>
      <cc:Work
         rdf:about="">
        <dc:format>image/svg+xml</dc:format>
        <dc:type
           rdf:resource="http://purl.org/dc/dcmitype/StillImage" />
        <dc:title />
      </cc:Work>
    </rdf:RDF>
  </metadata>
  <g
     inkscape:label="Capa 1"
     inkscape:groupmode="layer"
     id="layer1"
     transform="translate(-781.92389,29.32556)">
    <rect
       style="fill:#afe9dd;fill-opacity:1;stroke:none"
       id="rect4583"
       width="531.4715"
       height="348.90872"
       x="781.92389"
       y="-29.32556"
       inkscape:export-filename="/home/nessa/prueba.png"
       inkscape:export-xdpi="90.023537"
       inkscape:export-ydpi="90.023537" />
    <rect
       style="fill:#ffdd55;fill-opacity:1;stroke:none"
       id="rect4577"
       width="675.79205"
       height="388.90872"
       x="-1415.5062"
       y="-68.394119"
       transform="matrix(-0.97589125,-0.21825733,0.21825733,-0.97589125,0,0)" />
    <rect
       style="fill:#222b00;fill-opacity:1;stroke:none"
       id="rect4575"
       width="331.33005"
       height="215.16251"
       x="-1194.6176"
       y="-52.664715"
       transform="matrix(-0.9793488,-0.20217796,0.20217796,-0.9793488,0,0)" />
    <g
       id="g4569"
       transform="matrix(-0.87838341,-0.47795668,0.47795668,-0.87838341,912.00048,304.03851)">
      <path
         inkscape:transform-center-y="13.268746"
         inkscape:transform-center-x="6.2238486"
         sodipodi:type="arc"
         style="opacity:0.2;fill:#000000;fill-opacity:1;stroke-width:0.1;stroke-miterlimit:4;stroke-dasharray:none"
         id="path4567"
         sodipodi:cx="190.41376"
         sodipodi:cy="234.13863"
         sodipodi:rx="25.75889"
         sodipodi:ry="23.738585"
         d="m 216.17265,234.13863 a 25.75889,23.738585 0 0 1 -25.75889,23.73858 25.75889,23.738585 0 0 1 -25.75889,-23.73858 25.75889,23.738585 0 0 1 25.75889,-23.73859 25.75889,23.738585 0 0 1 25.75889,23.73859 z"
         transform="matrix(0.92508712,0.47347977,-0.74158222,1.448907,120.15841,-185.27777)" />
      <path
         transform="matrix(1.0392157,0,0,1.1489362,-68.477359,-35.881864)"
         d="m 216.17265,234.13863 a 25.75889,23.738585 0 0 1 -25.75889,23.73858 25.75889,23.738585 0 0 1 -25.75889,-23.73858 25.75889,23.738585 0 0 1 25.75889,-23.73859 25.75889,23.738585 0 0 1 25.75889,23.73859 z"
         sodipodi:ry="23.738585"
         sodipodi:rx="25.75889"
         sodipodi:cy="234.13863"
         sodipodi:cx="190.41376"
         id="path3703"
         style="fill:#82a68e;fill-opacity:1;stroke-width:0.1;stroke-miterlimit:4;stroke-dasharray:none"
         sodipodi:type="arc" />
      <path
         sodipodi:type="arc"
         style="fill:#629a90;fill-opacity:1;stroke-width:0.1;stroke-miterlimit:4;stroke-dasharray:none"
         id="path3705"
         sodipodi:cx="190.41376"
         sodipodi:cy="234.13863"
         sodipodi:rx="25.75889"
         sodipodi:ry="23.738585"
         d="m 216.17265,234.13863 a 25.75889,23.738585 0 0 1 -25.75889,23.73858 25.75889,23.738585 0 0 1 -25.75889,-23.73858 25.75889,23.738585 0 0 1 25.75889,-23.73859 25.75889,23.738585 0 0 1 25.75889,23.73859 z"
         transform="matrix(0.88235296,0,0,0.97551187,-38.608535,4.7234699)" />
      <path
         id="path4477"
         d="m 129.40625,209.96875 c -10.68865,0 -19.63566,7.52747 -22.0625,17.65625 4.34723,-4.63716 10.49046,-7.53125 17.28125,-7.53125 13.18536,0 23.875,10.87836 23.875,24.3125 0,0.44069 -0.009,0.87758 -0.0312,1.3125 2.31483,-3.62752 3.65625,-7.94447 3.65625,-12.59375 0,-12.78941 -10.16618,-23.15625 -22.71875,-23.15625 z"
         style="fill:#2d8587;fill-opacity:1;stroke-width:0.1;stroke-miterlimit:4;stroke-dasharray:none"
         inkscape:connector-curvature="0" />
    </g>
    <g
       id="g4541"
       transform="matrix(-0.87838341,-0.47795668,0.47795668,-0.87838341,1482.7329,596.76714)">
      <path
         transform="matrix(1,0,0,1.0170316,218.48477,-9.8127297)"
         d="M 513.66257,175.80231 A 107.07617,103.79317 0 0 1 406.5864,279.59547 107.07617,103.79317 0 0 1 299.51022,175.80231 107.07617,103.79317 0 0 1 406.5864,72.00914 107.07617,103.79317 0 0 1 513.66257,175.80231 Z"
         sodipodi:ry="103.79317"
         sodipodi:rx="107.07617"
         sodipodi:cy="175.80231"
         sodipodi:cx="406.5864"
         id="path4481"
         style="fill:#668000;fill-opacity:1;stroke-width:0.1;stroke-miterlimit:4;stroke-dasharray:none"
         sodipodi:type="arc" />
      <path
         sodipodi:type="arc"
         style="opacity:0.16030537;fill:#ececec;fill-opacity:1;stroke-width:0.1;stroke-miterlimit:4;stroke-dasharray:none"
         id="path4539"
         sodipodi:cx="406.5864"
         sodipodi:cy="175.80231"
         sodipodi:rx="107.07617"
         sodipodi:ry="103.79317"
         d="M 513.66257,175.80231 A 107.07617,103.79317 0 0 1 406.5864,279.59547 107.07617,103.79317 0 0 1 299.51022,175.80231 107.07617,103.79317 0 0 1 406.5864,72.00914 107.07617,103.79317 0 0 1 513.66257,175.80231 Z"
         transform="matrix(0.65511871,0,0,0.66627644,358.70881,51.850837)" />
      <path
         id="path4532"
         d="m 625.0625,80.34375 c -49.65238,0 -89.90625,39.67526 -89.90625,88.625 0,48.94974 40.25387,88.65625 89.90625,88.65625 49.65238,0 89.90625,-39.70651 89.90625,-88.65625 0,-48.94974 -40.25387,-88.625 -89.90625,-88.625 z m 0,2 c 48.53659,0 87.90625,38.77525 87.90625,86.625 0,47.84975 -39.36966,86.65625 -87.90625,86.65625 -48.53659,0 -87.875,-38.8065 -87.875,-86.65625 0,-47.84975 39.33841,-86.625 87.875,-86.625 z"
         style="fill:#e3dedb;fill-opacity:1;stroke-width:0.1;stroke-miterlimit:4;stroke-dasharray:none"
         inkscape:connector-curvature="0" />
      <path
         style="opacity:0.1;fill:#f9f9f9;fill-opacity:1;stroke-width:0.1;stroke-miterlimit:4;stroke-dasharray:none"
         d="m 518.125,163.46875 c -0.0957,1.83001 -0.125,3.64651 -0.125,5.5 0,58.29969 47.92596,105.5625 107.0625,105.5625 47.91846,0 88.48978,-31.02186 102.15625,-73.8125 -22.26605,26.86714 -56.12553,44.03125 -94.0625,44.03125 -53.42716,0 -98.79413,-34.01707 -115.03125,-81.28125 z"
         id="path4562"
         inkscape:connector-curvature="0" />
      <g
         id="g4620">
        <g
           id="g4517"
           transform="matrix(-0.59693399,-0.80229035,0.80229035,-0.59693399,880.05106,764.35105)"
           style="fill:#ffb380;fill-opacity:1">
          <path
             d="m 592.95952,136.91144 a 9.8489876,9.3439112 0 0 1 -9.84899,9.34391 9.8489876,9.3439112 0 0 1 -9.84898,-9.34391 9.8489876,9.3439112 0 0 1 9.84898,-9.34391 9.8489876,9.3439112 0 0 1 9.84899,9.34391 z"
             sodipodi:ry="9.3439112"
             sodipodi:rx="9.8489876"
             sodipodi:cy="136.91144"
             sodipodi:cx="583.11053"
             id="path4505"
             style="fill:#ffb380;fill-opacity:1;stroke:none"
             sodipodi:type="arc" />
          <path
             transform="matrix(2.3846153,0,0,2.3846153,-782.63506,-184.2081)"
             sodipodi:type="arc"
             style="fill:#ffb380;fill-opacity:1;stroke:none"
             id="path4507"
             sodipodi:cx="583.11053"
             sodipodi:cy="136.91144"
             sodipodi:rx="9.8489876"
             sodipodi:ry="9.3439112"
             d="m 592.95952,136.91144 a 9.8489876,9.3439112 0 0 1 -9.84899,9.34391 9.8489876,9.3439112 0 0 1 -9.84898,-9.34391 9.8489876,9.3439112 0 0 1 9.84898,-9.34391 9.8489876,9.3439112 0 0 1 9.84899,9.34391 z" />
          <path
             d="m 592.95952,136.91144 a 9.8489876,9.3439112 0 0 1 -9.84899,9.34391 9.8489876,9.3439112 0 0 1 -9.84898,-9.34391 9.8489876,9.3439112 0 0 1 9.84898,-9.34391 9.8489876,9.3439112 0 0 1 9.84899,9.34391 z"
             sodipodi:ry="9.3439112"
             sodipodi:rx="9.8489876"
             sodipodi:cy="136.91144"
             sodipodi:cx="583.11053"
             id="path4509"
             style="fill:#ffb380;fill-opacity:1;stroke:none"
             sodipodi:type="arc"
             transform="matrix(2.3846153,0,0,2.3846153,-785.66552,-156.4289)" />
          <path
             transform="matrix(2.3846153,0,0,2.3846153,-767.98785,-168.55073)"
             sodipodi:type="arc"
             style="fill:#ffb380;fill-opacity:1;stroke:none"
             id="path4511"
             sodipodi:cx="583.11053"
             sodipodi:cy="136.91144"
             sodipodi:rx="9.8489876"
             sodipodi:ry="9.3439112"
             d="m 592.95952,136.91144 a 9.8489876,9.3439112 0 0 1 -9.84899,9.34391 9.8489876,9.3439112 0 0 1 -9.84898,-9.34391 9.8489876,9.3439112 0 0 1 9.84898,-9.34391 9.8489876,9.3439112 0 0 1 9.84899,9.34391 z" />
          <path
             d="m 592.95952,136.91144 a 9.8489876,9.3439112 0 0 1 -9.84899,9.34391 9.8489876,9.3439112 0 0 1 -9.84898,-9.34391 9.8489876,9.3439112 0 0 1 9.84898,-9.34391 9.8489876,9.3439112 0 0 1 9.84899,9.34391 z"
             sodipodi:ry="9.3439112"
             sodipodi:rx="9.8489876"
             sodipodi:cy="136.91144"
             sodipodi:cx="583.11053"
             id="path4513"
             style="fill:#ffb380;fill-opacity:1;stroke:none"
             sodipodi:type="arc"
             transform="matrix(1.7900207,0,0,1.7900207,-409.95705,-111.38759)" />
          <path
             transform="matrix(1.7900207,0,0,1.7900207,-424.09919,-127.04495)"
             sodipodi:type="arc"
             style="fill:#ffb380;fill-opacity:1;stroke:none"
             id="path4515"
             sodipodi:cx="583.11053"
             sodipodi:cy="136.91144"
             sodipodi:rx="9.8489876"
             sodipodi:ry="9.3439112"
             d="m 592.95952,136.91144 a 9.8489876,9.3439112 0 0 1 -9.84899,9.34391 9.8489876,9.3439112 0 0 1 -9.84898,-9.34391 9.8489876,9.3439112 0 0 1 9.84898,-9.34391 9.8489876,9.3439112 0 0 1 9.84899,9.34391 z" />
        </g>
        <path
           transform="matrix(-0.99996739,-0.00807604,0.00807604,-0.99996739,846.9928,335.52689)"
           d="M 243.57143,193.19444 A 21.071428,20.714285 0 0 1 222.5,213.90873 21.071428,20.714285 0 0 1 201.42857,193.19444 21.071428,20.714285 0 0 1 222.5,172.48016 a 21.071428,20.714285 0 0 1 21.07143,20.71428 z"
           sodipodi:ry="20.714285"
           sodipodi:rx="21.071428"
           sodipodi:cy="193.19444"
           sodipodi:cx="222.5"
           id="path4604"
           style="fill:#ffb380;fill-opacity:1;stroke:none"
           sodipodi:type="arc" />
        <path
           sodipodi:type="arc"
           style="fill:#ffb380;fill-opacity:1;stroke:none"
           id="path4606"
           sodipodi:cx="222.5"
           sodipodi:cy="193.19444"
           sodipodi:rx="21.071428"
           sodipodi:ry="20.714285"
           d="M 243.57143,193.19444 A 21.071428,20.714285 0 0 1 222.5,213.90873 21.071428,20.714285 0 0 1 201.42857,193.19444 21.071428,20.714285 0 0 1 222.5,172.48016 a 21.071428,20.714285 0 0 1 21.07143,20.71428 z"
           transform="matrix(-0.99996739,-0.00807604,0.00807604,-0.99996739,846.9928,335.52689)" />
        <path
           transform="matrix(-0.99996739,-0.00807604,0.00807604,-0.99996739,846.9928,335.52689)"
           d="m 267.85714,175.3373 a 22.142857,21.428572 0 0 1 -22.14286,21.42857 22.142857,21.428572 0 0 1 -22.14286,-21.42857 22.142857,21.428572 0 0 1 22.14286,-21.42858 22.142857,21.428572 0 0 1 22.14286,21.42858 z"
           sodipodi:ry="21.428572"
           sodipodi:rx="22.142857"
           sodipodi:cy="175.3373"
           sodipodi:cx="245.71428"
           id="path4608"
           style="fill:#ffb380;fill-opacity:1;stroke:none"
           sodipodi:type="arc" />
        <path
           transform="matrix(-0.99996739,-0.00807604,0.00807604,-0.99996739,846.9928,335.52689)"
           d="m 263.57142,150.69444 a 7.1428571,21.785715 0 0 1 -7.14286,21.78572 7.1428571,21.785715 0 0 1 -7.14286,-21.78572 7.1428571,21.785715 0 0 1 7.14286,-21.78571 7.1428571,21.785715 0 0 1 7.14286,21.78571 z"
           sodipodi:ry="21.785715"
           sodipodi:rx="7.1428571"
           sodipodi:cy="150.69444"
           sodipodi:cx="256.42856"
           id="path4610"
           style="fill:#ffb380;fill-opacity:1;stroke:none"
           sodipodi:type="arc" />
        <path
           transform="matrix(-0.99996739,-0.00807604,0.00807604,-0.99996739,846.9928,335.52689)"
           d="M 218.57143,189.623 A 19.642857,24.285715 0 0 1 198.92857,213.90872 19.642857,24.285715 0 0 1 179.28572,189.623 19.642857,24.285715 0 0 1 198.92857,165.33729 19.642857,24.285715 0 0 1 218.57143,189.623 Z"
           sodipodi:ry="24.285715"
           sodipodi:rx="19.642857"
           sodipodi:cy="189.623"
           sodipodi:cx="198.92857"
           id="path4612"
           style="fill:#ffb380;fill-opacity:1;stroke:none"
           sodipodi:type="arc" />
        <path
           transform="matrix(-0.99996739,-0.00807604,0.00807604,-0.99996739,846.9928,335.52689)"
           d="m 220.71429,135.3373 a 19.285715,12.142858 0 0 1 -19.28572,12.14285 19.285715,12.142858 0 0 1 -19.28571,-12.14285 19.285715,12.142858 0 0 1 19.28571,-12.14286 19.285715,12.142858 0 0 1 19.28572,12.14286 z"
           sodipodi:ry="12.142858"
           sodipodi:rx="19.285715"
           sodipodi:cy="135.3373"
           sodipodi:cx="201.42857"
           id="path4614"
           style="fill:#ffb380;fill-opacity:1;stroke:none"
           sodipodi:type="arc" />
        <path
           transform="matrix(-0.99996739,-0.00807604,0.00807604,-0.99996739,846.9928,335.52689)"
           d="m 267.14285,192.48015 a 16.428572,15 0 0 1 -16.42857,15 16.428572,15 0 0 1 -16.42857,-15 16.428572,15 0 0 1 16.42857,-15 16.428572,15 0 0 1 16.42857,15 z"
           sodipodi:ry="15"
           sodipodi:rx="16.428572"
           sodipodi:cy="192.48015"
           sodipodi:cx="250.71428"
           id="path4616"
           style="fill:#ffb380;fill-opacity:1;stroke:none"
           sodipodi:type="arc" />
        <path
           transform="matrix(-0.99996739,-0.00807604,0.00807604,-0.99996739,846.9928,335.52689)"
           d="m 287.14287,164.26587 a 16.428572,18.928572 0 0 1 -16.42858,18.92857 16.428572,18.928572 0 0 1 -16.42857,-18.92857 16.428572,18.928572 0 0 1 16.42857,-18.92857 16.428572,18.928572 0 0 1 16.42858,18.92857 z"
           sodipodi:ry="18.928572"
           sodipodi:rx="16.428572"
           sodipodi:cy="164.26587"
           sodipodi:cx="270.71429"
           id="path4618"
           style="fill:#ffb380;fill-opacity:1;stroke:none"
           sodipodi:type="arc" />
      </g>
    </g>
    <rect
       style="fill:#006680;fill-opacity:1;stroke:none"
       id="rect4579"
       width="60.609154"
       height="166.67517"
       x="-1161.5658"
       y="278.21912"
       transform="matrix(-0.87838341,-0.47795668,0.47795668,-0.87838341,0,0)" />
    <rect
       y="150.37828"
       x="-1185.3258"
       height="166.67517"
       width="60.609154"
       id="rect4581"
       style="fill:#0088aa;fill-opacity:1;stroke:none"
       transform="matrix(-0.92475598,-0.38056061,0.38056061,-0.92475598,0,0)" />
    <path
       style="fill:#803300;stroke:none"
       d="m 1028.7165,137.74868 8.3252,-0.28329 c 0,0 1.5855,-14.63978 7.5588,-4.79232 5.9733,9.84747 -1.8291,22.55033 -6.441,16.0307 -3.0903,-4.36864 -2.0864,-7.28319 -2.0864,-7.28319 l -8.2178,-1.65736 z"
       id="path4637"
       inkscape:connector-curvature="0"
       sodipodi:nodetypes="ccssccc" />
    <path
       sodipodi:nodetypes="ccssccc"
       inkscape:connector-curvature="0"
       id="path4639"
       d="m 1000.3133,147.72411 -2.97012,-6.54818 c 0,0 10.62172,-9.62786 0.7816,-8.55124 -9.8401,1.07659 -16.596,14.3599 -9.8296,14.15121 4.534,-0.13985 6.3852,-2.58449 6.3852,-2.58449 l 4.4175,5.35083 z"
       style="fill:#803300;stroke:none" />
    <path
       style="fill:#803300;stroke:none"
       d="m 1025.8239,165.68798 -6.5584,2.94757 c 0,0 -9.5912,-10.65488 -8.5486,-0.81117 1.0427,9.84375 14.3027,16.64542 14.1173,9.87837 -0.1243,-4.53444 -2.5625,-6.39403 -2.5625,-6.39403 l 5.3661,-4.39908 z"
       id="path4641"
       inkscape:connector-curvature="0"
       sodipodi:nodetypes="ccssccc" />
    <path
       style="fill:#803300;stroke:none"
       d="m 998.44788,159.07646 -6.5602,2.93663 c 0,0 -9.5692,-10.64213 -8.5266,-0.79842 0.4641,4.38148 3.3393,8.15262 6.3813,10.40047 3.3107,-5.22172 6.6219,-9.4515 9.4404,-12.05962 l -0.7349,-0.47906 z"
       id="path4643"
       inkscape:connector-curvature="0" />
    <path
       id="path4648"
       d="m 998.44788,159.07646 -6.5602,2.93663 c 0,0 -9.5692,-10.64213 -8.5266,-0.79842 0.4641,4.38148 3.3393,8.15262 6.3813,10.40047 3.3107,-5.22172 6.6219,-9.4515 9.4404,-12.05962 l -0.7349,-0.47906 z"
       style="fill:#803300;stroke:none"
       inkscape:connector-curvature="0" />
    <path
       style="fill:#803300;stroke:none"
       d="m 1010.3493,117.20197 4.463,5.634 c 0,0 -7.9552,11.89707 1.3279,8.46036 4.1319,-1.52971 7.078,-5.24578 8.5067,-8.74799 -5.8767,-1.92142 -10.7921,-4.08798 -14.0144,-6.17664 l -0.2832,0.83027 z"
       id="path4650"
       inkscape:connector-curvature="0" />
    <path
       inkscape:connector-curvature="0"
       id="path4652"
       d="m 1049.7878,163.17188 4.4629,5.63398 c 0,0 -7.9551,11.8971 1.3279,8.46037 4.1319,-1.52971 7.078,-5.24578 8.5067,-8.74798 -5.8766,-1.9214 -10.792,-4.08798 -14.0144,-6.17664 l -0.2831,0.83027 z"
       style="fill:#803300;stroke:none" />
  </g>
</svg>
