<?xml version="1.0" encoding="UTF-8" standalone="no"?>
<!-- Created with Inkscape (http://www.inkscape.org/) -->

<svg
   xmlns:dc="http://purl.org/dc/elements/1.1/"
   xmlns:cc="http://creativecommons.org/ns#"
   xmlns:rdf="http://www.w3.org/1999/02/22-rdf-syntax-ns#"
   xmlns:svg="http://www.w3.org/2000/svg"
   xmlns="http://www.w3.org/2000/svg"
   xmlns:sodipodi="http://sodipodi.sourceforge.net/DTD/sodipodi-0.dtd"
   xmlns:inkscape="http://www.inkscape.org/namespaces/inkscape"
   width="531.4715"
   height="348.90872"
   id="svg2"
   version="1.1"
   inkscape:version="0.48.4 r9939"
   inkscape:export-filename="/home/nessa/fake_food_2.png"
   inkscape:export-xdpi="90.005516"
   inkscape:export-ydpi="90.005516"
   sodipodi:docname="fake_food_3.svg">
  <defs
     id="defs4" />
  <sodipodi:namedview
     id="base"
     pagecolor="#ffffff"
     bordercolor="#666666"
     borderopacity="1.0"
     inkscape:pageopacity="0.0"
     inkscape:pageshadow="2"
     inkscape:zoom="0.98994949"
     inkscape:cx="76.341536"
     inkscape:cy="181.90263"
     inkscape:document-units="px"
     inkscape:current-layer="layer1"
     showgrid="false"
     inkscape:window-width="1440"
     inkscape:window-height="845"
     inkscape:window-x="0"
     inkscape:window-y="27"
     inkscape:window-maximized="1"
     fit-margin-top="0"
     fit-margin-left="0"
     fit-margin-right="0"
     fit-margin-bottom="0" />
  <metadata
     id="metadata7">
    <rdf:RDF>
      <cc:Work
         rdf:about="">
        <dc:format>image/svg+xml</dc:format>
        <dc:type
           rdf:resource="http://purl.org/dc/dcmitype/StillImage" />
        <dc:title></dc:title>
      </cc:Work>
    </rdf:RDF>
  </metadata>
  <g
     inkscape:label="Capa 1"
     inkscape:groupmode="layer"
     id="layer1"
     transform="translate(-781.92389,29.32556)">
    <rect
       style="fill:#e3d7f4;fill-opacity:1;stroke:none"
       id="rect4583"
       width="531.4715"
       height="348.90872"
       x="781.92389"
       y="-29.32556"
       inkscape:export-filename="/home/nessa/prueba.png"
       inkscape:export-xdpi="90.023537"
       inkscape:export-ydpi="90.023537" />
    <path
       style="fill:#b380ff;fill-opacity:1;stroke:none"
       d="M 495.53125 -144.1875 L 267.15625 -50.0625 L 267.15625 -102.53125 L -138.5625 -102.53125 L -138.5625 166.0625 L -107.53125 166.0625 L 18.90625 472.90625 L 643.71875 215.375 L 495.53125 -144.1875 z "
       transform="translate(781.92389,-29.32556)"
       id="rect4577" />
    <path
       style="fill:#6f7c91;stroke:none"
       d="m 836.65695,-76.333533 c 0,0 78.91396,105.567052 86.10337,141.191414 7.18943,35.624359 -29.6543,66.234569 21.48002,119.154259 62.72436,64.91437 107.63036,39.93153 83.46786,-49.92736 C 1008.222,61.617004 971.90985,79.465636 946.53105,51.219639 916.51408,17.811457 870.72289,-96.897773 870.72289,-96.897773 z"
       id="path4746"
       inkscape:connector-curvature="0"
       sodipodi:nodetypes="csssscc" />
    <path
       sodipodi:nodetypes="csssscc"
       inkscape:connector-curvature="0"
       id="path4748"
       d="m 982.11892,-34.917279 c 0,0 78.91398,105.567052 86.10338,141.191419 7.1894,35.62435 -29.6543,66.23456 21.48,119.15425 62.7244,64.91437 107.6304,39.93153 83.4679,-49.92736 -19.4862,-72.46777 -55.7984,-54.61914 -81.1772,-82.865137 -30.017,-33.408182 -75.8081,-148.117412 -75.8081,-148.117412 z"
       style="fill:#6f7c91;stroke:none" />
    <path
       style="fill:#6f7c91;stroke:none"
       d="m 1044.7484,-150.07467 c 0,0 78.914,105.567053 86.1034,141.1914198 7.1894,35.6243502 -29.6543,66.2345602 21.48,119.1542502 62.7244,64.91437 107.6304,39.93153 83.4679,-49.92736 -19.4862,-72.46777 -55.7984,-54.6191402 -81.1772,-82.865137 -30.017,-33.408182 -75.8081,-148.117413 -75.8081,-148.117413 z"
       id="path4750"
       inkscape:connector-curvature="0"
       sodipodi:nodetypes="csssscc" />
    <path
       sodipodi:nodetypes="csssscc"
       inkscape:connector-curvature="0"
       id="path4744"
       d="m 701.29651,-114.71933 c 0,0 78.91396,105.5670524 86.10337,141.191414 7.18943,35.624363 -29.6543,66.234568 21.48002,119.154256 62.72431,64.91437 107.63037,39.93153 83.46782,-49.927358 C 872.86155,23.231207 836.54941,41.079839 811.17061,12.833842 781.15364,-20.57434 735.36245,-135.28357 735.36245,-135.28357 z"
       style="fill:#6f7c91;stroke:none" />
    <path
       style="fill:#aaffee;stroke:none"
       d="m 694.22544,-111.68887 c 0,0 78.91396,105.56705 86.10337,141.191412 7.18943,35.624363 -29.6543,66.234568 21.48002,119.154258 62.72431,64.91437 107.63037,39.93153 83.46782,-49.92736 C 865.79048,26.261665 829.47834,44.110297 804.09954,15.8643 774.08257,-17.543882 728.29138,-132.25311 728.29138,-132.25311 z"
       id="path4692"
       inkscape:connector-curvature="0"
       sodipodi:nodetypes="csssscc" />
    <path
       style="fill:#d5fff6;stroke:none"
       d="m 717.25017,-125.59771 -23.0189,13.90055 c 0,0 78.90252,105.581412 86.09194,141.205774 7.18943,35.624362 -29.6544,66.237466 21.47992,119.157156 36.92381,38.21303 67.66374,45.24602 81.7838,26.25893 C 857.36488,144.93712 824.45576,97.52648 792.52268,41.868839 753.90898,-25.432749 726.41823,-87.908701 717.25017,-125.59771 z"
       id="path4696"
       inkscape:connector-curvature="0" />
    <path
       style="fill:#2b1100;stroke:none"
       d="m 800.74274,40.21288 c -19.79882,27.666775 -18.01422,44.98867 -8.09688,72.93265 9.91735,27.94397 33.37362,22.63983 45.79271,38.95634 12.41909,16.31651 45.2907,2.55276 44.13499,-31.43734 C 881.842,99.14918 875.24621,68.81193 856.26523,62.375521 837.28422,55.939118 805.77105,31.212661 800.74274,40.21288 z"
       id="path4701"
       inkscape:connector-curvature="0"
       sodipodi:nodetypes="cssssc" />
    <path
       sodipodi:nodetypes="csssscc"
       inkscape:connector-curvature="0"
       id="path4719"
       d="m 828.50051,-76.614801 c 0,0 78.91397,105.567043 86.10339,141.19141 7.18942,35.624351 -29.65431,66.234571 21.48001,119.154251 62.7243,64.91437 107.63029,39.93154 83.46779,-49.92735 C 1000.0655,61.335734 963.75341,79.18437 938.37451,50.938383 908.35761,17.53021 862.56645,-97.179041 862.56645,-97.179041 z"
       style="fill:#aaffee;stroke:none" />
    <path
       id="path4721"
       d="m 851.52525,-90.523641 -23.0189,13.90055 c 0,0 78.90252,105.581405 86.09194,141.205772 7.18942,35.624359 -29.6544,66.237469 21.47992,119.157149 36.9238,38.21303 67.66369,45.24603 81.78379,26.25891 C 991.63991,180.01118 958.73091,132.60054 926.79776,76.942903 888.18406,9.641314 860.69331,-52.834639 851.52525,-90.523641 z"
       style="fill:#d5fff6;stroke:none"
       inkscape:connector-curvature="0" />
    <path
       sodipodi:nodetypes="cssssc"
       inkscape:connector-curvature="0"
       id="path4723"
       d="m 935.01781,75.286947 c -19.79881,27.666773 -18.01422,44.988663 -8.09685,72.932653 9.91735,27.94396 28.35765,38.76739 38.35095,47.30284 15.5918,13.31746 52.73239,-5.79372 51.57669,-39.78384 -0.7315,-21.51537 -19.71649,-55.75408 -35.20789,-68.47115 -21.1931,-17.397731 -46.6229,-11.980503 -46.6229,-11.980503 z"
       style="fill:#aad400;stroke:none" />
    <path
       sodipodi:nodetypes="csssscc"
       inkscape:connector-curvature="0"
       id="path4725"
       d="m 972.21581,-35.74564 c 0,0 78.91389,105.567062 86.10329,141.19143 7.1894,35.62437 -29.6543,66.23457 21.48,119.15426 62.7244,64.91437 107.6304,39.93153 83.4678,-49.92737 -19.4861,-72.46777 -55.7983,-54.61914 -81.1771,-82.86512 -30.0169,-33.408178 -75.8082,-148.117416 -75.8082,-148.117416 z"
       style="fill:#aaffee;stroke:none" />
    <path
       id="path4727"
       d="m 995.24051,-49.654459 -23.0189,13.900535 c 0,0 78.90249,105.581413 86.09189,141.205784 7.1894,35.62437 -29.6544,66.23745 21.4799,119.15714 36.9238,38.21303 67.6637,45.24605 81.7839,26.25893 -26.2221,-29.98759 -59.1313,-77.3982 -91.0643,-133.05584 -38.6137,-67.301593 -66.1046,-129.777537 -75.27249,-167.466549 z"
       style="fill:#d5fff6;stroke:none"
       inkscape:connector-curvature="0" />
    <path
       sodipodi:nodetypes="cssssc"
       inkscape:connector-curvature="0"
       id="path4729"
       d="m 1092.8871,121.28512 c -24.4245,16.05172 -29.5659,23.0784 -19.6485,51.02237 9.9173,27.94397 18.6913,29.02522 31.1105,45.34172 12.419,16.31654 52.2291,19.97534 51.0734,-14.01474 -0.7316,-21.51537 -4.8291,-35.29196 -14.1279,-53.04696 -10.6718,-20.37665 -34.0398,-27.35368 -48.4075,-29.30239 z"
       style="fill:#ffd42a;stroke:none" />
    <path
       style="opacity:0.6;fill:#ffd42a;stroke:none"
       d="m 1088.0476,112.85035 c -24.4244,16.05171 -34.0534,27.69158 -24.1362,55.63559 9.9174,27.94397 21.2429,45.90714 33.6619,62.22367 12.4191,16.3165 66.1446,14.02991 64.9889,-19.96021 -0.7315,-21.51538 -7.695,-43.83979 -16.9937,-61.59479 -10.6717,-20.37669 -43.153,-34.35555 -57.5209,-36.30426 z"
       id="path4731"
       inkscape:connector-curvature="0"
       sodipodi:nodetypes="cssssc" />
    <path
       style="fill:#aaffee;stroke:none"
       d="m 1037.3001,-150.92189 c 0,0 78.914,105.567069 86.1034,141.191441 7.1895,35.624324 -29.6543,66.234567 21.48,119.154249 62.7243,64.91437 107.6304,39.9315 83.4679,-49.927359 -19.4862,-72.467773 -55.7984,-54.619137 -81.1771,-82.865163 -30.017,-33.408182 -75.8082,-148.117378 -75.8082,-148.117378 z"
       id="path4733"
       inkscape:connector-curvature="0"
       sodipodi:nodetypes="csssscc" />
    <path
       inkscape:connector-curvature="0"
       style="fill:#d5fff6;stroke:none"
       d="m 1060.3249,-164.83071 -23.0189,13.90054 c 0,0 78.9025,105.581418 86.0919,141.205789 7.1895,35.624324 -29.6543,66.237447 21.48,119.157131 36.9238,38.21303 67.6637,45.24602 81.7837,26.25893 -26.222,-29.98759 -59.1312,-77.398198 -91.0642,-133.055839 -38.6137,-67.301589 -66.1044,-129.777571 -75.2725,-167.466551 z"
       id="path4735" />
    <path
       style="fill:#ffd42a;stroke:none"
       d="m 1157.9715,6.108839 c -24.4244,16.051756 -29.5658,23.078396 -19.6485,51.022414 9.9173,27.943967 18.6914,29.025217 31.1104,45.341707 12.4192,16.31649 52.2292,19.97534 51.0734,-14.01473 -0.7315,-21.51537 -4.8291,-35.291965 -14.1278,-53.046966 -10.6717,-20.376649 -34.0398,-27.353681 -48.4075,-29.302425 z"
       id="path4737"
       inkscape:connector-curvature="0"
       sodipodi:nodetypes="cssssc" />
    <path
       sodipodi:nodetypes="cssssc"
       inkscape:connector-curvature="0"
       id="path4739"
       d="m 1207.8354,132.21877 c 25.626,0.94939 32.6507,-29.33262 21.3713,-56.755172 -11.2794,-27.422495 -23.4744,-44.807033 -36.6807,-60.493157 -13.2066,-15.68607404 -66.7546,-10.7603649 -63.9288,23.131762 1.7886,21.453368 9.8414,43.408403 20.0019,60.68464 11.6608,19.827287 44.7902,32.192047 59.2363,33.431927 z"
       style="opacity:0.6;fill:#ff6600;stroke:none" />
  </g>
</svg>
