<?xml version="1.0" encoding="UTF-8" standalone="no"?>
<!-- Created with Inkscape (http://www.inkscape.org/) -->

<svg
   xmlns:dc="http://purl.org/dc/elements/1.1/"
   xmlns:cc="http://creativecommons.org/ns#"
   xmlns:rdf="http://www.w3.org/1999/02/22-rdf-syntax-ns#"
   xmlns:svg="http://www.w3.org/2000/svg"
   xmlns="http://www.w3.org/2000/svg"
   xmlns:sodipodi="http://sodipodi.sourceforge.net/DTD/sodipodi-0.dtd"
   xmlns:inkscape="http://www.inkscape.org/namespaces/inkscape"
   width="24"
   height="24"
   id="svg2"
   version="1.1"
   inkscape:version="0.48.4 r9939"
   sodipodi:docname="ic_type_of_dish_24dp.svg"
   inkscape:export-filename="/home/nessa/Proyectos/serenity-app/AmuseApp/app/src/main/res/drawable-xxxhdpi/ic_type_of_dish_24dp.png"
   inkscape:export-xdpi="360"
   inkscape:export-ydpi="360">
  <defs
     id="defs4">
    <inkscape:perspective
       sodipodi:type="inkscape:persp3d"
       inkscape:vp_x="0 : 12 : 1"
       inkscape:vp_y="0 : 1000 : 0"
       inkscape:vp_z="24 : 12 : 1"
       inkscape:persp3d-origin="12 : 8 : 1"
       id="perspective2983" />
  </defs>
  <sodipodi:namedview
     id="base"
     pagecolor="#ffffff"
     bordercolor="#666666"
     borderopacity="1.0"
     inkscape:pageopacity="0.0"
     inkscape:pageshadow="2"
     inkscape:zoom="15.839192"
     inkscape:cx="11.145787"
     inkscape:cy="16.430075"
     inkscape:document-units="px"
     inkscape:current-layer="layer1"
     showgrid="false"
     fit-margin-top="0"
     fit-margin-left="0"
     fit-margin-right="0"
     fit-margin-bottom="0"
     inkscape:window-width="1366"
     inkscape:window-height="702"
     inkscape:window-x="0"
     inkscape:window-y="27"
     inkscape:window-maximized="1"
     showguides="true"
     inkscape:guide-bbox="true" />
  <metadata
     id="metadata7">
    <rdf:RDF>
      <cc:Work
         rdf:about="">
        <dc:format>image/svg+xml</dc:format>
        <dc:type
           rdf:resource="http://purl.org/dc/dcmitype/StillImage" />
        <dc:title></dc:title>
      </cc:Work>
    </rdf:RDF>
  </metadata>
  <g
     inkscape:label="Capa 1"
     inkscape:groupmode="layer"
     id="layer1"
     transform="translate(-706.28571,-722.79071)">
    <path
       style="fill:#000000;fill-opacity:1;stroke:none"
       d="M 4 10.71875 L 4 10.9375 L 4 21.34375 L 4 22.0625 C 4 22.85841 4.64479 23.5 5.4375 23.5 L 18.59375 23.5 C 19.38645 23.5 20 22.85841 20 22.0625 L 20 21.34375 L 20 10.9375 L 20 10.71875 L 4 10.71875 z "
       transform="translate(706.28571,722.79071)"
       id="rect2999" />
    <path
       style="fill:#000000;fill-opacity:1;stroke:none"
       d="m 709.87946,729.52672 c -0.64607,0 -1.15625,0.51018 -1.15625,1.15625 l 0,0.375 0,0.8125 0,1.15625 1.15625,0 16.8125,0 1.15625,0 0,-1.15625 0,-0.8125 0,-0.375 c 0,-0.64607 -0.51018,-1.15625 -1.15625,-1.15625 l -16.8125,0 z"
       id="rect3008"
       inkscape:connector-curvature="0" />
    <path
       style="fill:#000000;fill-opacity:1;stroke:none"
       d="M 11.75 4.15625 C 11.638705 4.15625 11.5625 4.2324554 11.5625 4.34375 L 11.5625 5.15625 L 9.34375 5.15625 C 9.14054 5.15625 9 5.32804 9 5.53125 L 9 5.625 L 9 5.875 L 9 6.25 L 9.34375 6.25 L 14.65625 6.25 L 15 6.25 L 15 5.875 L 15 5.625 L 15 5.53125 C 15 5.32804 14.85946 5.15625 14.65625 5.15625 L 12.4375 5.15625 L 12.4375 4.34375 C 12.4375 4.2324554 12.361295 4.15625 12.25 4.15625 L 11.75 4.15625 z "
       transform="translate(706.28571,722.79071)"
       id="path3013" />
    <g
       id="g3806"
       transform="translate(0.088555,0.44194174)"
       style="fill:#000000">
      <path
         sodipodi:nodetypes="cccc"
         inkscape:connector-curvature="0"
         id="path3032"
         d="m 717.81777,725.8902 -1.03604,-2.46302 -0.43447,0.29177 z"
         style="fill:#000000;fill-opacity:1;stroke:none" />
      <path
         sodipodi:nodetypes="cccc"
         inkscape:connector-curvature="0"
         id="path3802"
         d="m 718.30915,725.94679 -0.22162,-2.83912 0.39636,-0.009 z"
         style="fill:#000000;fill-opacity:1;stroke:none" />
      <path
         sodipodi:nodetypes="cccc"
         style="fill:#000000;fill-opacity:1;stroke:none"
         d="m 718.75016,725.92829 0.94133,-2.41566 0.35556,0.21285 z"
         id="path3804"
         inkscape:connector-curvature="0" />
    </g>
  </g>
</svg>
