<?xml version="1.0" encoding="UTF-8" standalone="no"?>
<!-- Created with Inkscape (http://www.inkscape.org/) -->

<svg
   xmlns:dc="http://purl.org/dc/elements/1.1/"
   xmlns:cc="http://creativecommons.org/ns#"
   xmlns:rdf="http://www.w3.org/1999/02/22-rdf-syntax-ns#"
   xmlns:svg="http://www.w3.org/2000/svg"
   xmlns="http://www.w3.org/2000/svg"
   xmlns:xlink="http://www.w3.org/1999/xlink"
   xmlns:sodipodi="http://sodipodi.sourceforge.net/DTD/sodipodi-0.dtd"
   xmlns:inkscape="http://www.inkscape.org/namespaces/inkscape"
   width="1024"
   height="500"
   id="svg2"
   version="1.1"
   inkscape:version="0.91 r13725"
   inkscape:export-filename="/home/nsales/play_store_img.png"
   inkscape:export-xdpi="45.970955"
   inkscape:export-ydpi="45.970955"
   sodipodi:docname="play_store_img.svg">
  <defs
     id="defs4">
    <linearGradient
       id="linearGradient3972">
      <stop
         id="stop3974"
         offset="0"
         style="stop-color:#ffffff;stop-opacity:0.32919255;" />
      <stop
         id="stop3976"
         offset="1"
         style="stop-color:#ffffff;stop-opacity:0;" />
    </linearGradient>
    <linearGradient
       id="linearGradient3866">
      <stop
         id="stop3868"
         offset="0"
         style="stop-color:#b4b4b4;stop-opacity:0;" />
      <stop
         style="stop-color:#b4b4b4;stop-opacity:0;"
         offset="0.87037039"
         id="stop3874" />
      <stop
         id="stop3878"
         offset="0.93518519"
         style="stop-color:#b4b4b4;stop-opacity:0.51552796;" />
      <stop
         id="stop3870"
         offset="1"
         style="stop-color:#b4b4b4;stop-opacity:1;" />
    </linearGradient>
    <radialGradient
       r="135"
       fy="451"
       fx="367.4375"
       cy="451"
       cx="367.4375"
       gradientTransform="matrix(1.1646175,0,0,1.1646175,-42.386893,-88.117553)"
       gradientUnits="userSpaceOnUse"
       id="radialGradient4037"
       xlink:href="#linearGradient3866"
       inkscape:collect="always" />
    <linearGradient
       y2="394.12045"
       x2="343.51889"
       y1="431.9776"
       x1="395.93182"
       gradientUnits="userSpaceOnUse"
       id="linearGradient4039"
       xlink:href="#linearGradient3972"
       inkscape:collect="always" />
    <linearGradient
       gradientTransform="translate(-155.53723,385.23728)"
       y2="394.12045"
       x2="343.51889"
       y1="431.9776"
       x1="395.93182"
       gradientUnits="userSpaceOnUse"
       id="linearGradient4064"
       xlink:href="#linearGradient3972"
       inkscape:collect="always" />
    <radialGradient
       r="135"
       fy="451"
       fx="367.4375"
       cy="451"
       cx="367.4375"
       gradientTransform="matrix(1.1646175,0,0,1.1646175,-197.92412,297.11973)"
       gradientUnits="userSpaceOnUse"
       id="radialGradient4084"
       xlink:href="#linearGradient3866"
       inkscape:collect="always" />
    <linearGradient
       y2="394.12045"
       x2="343.51889"
       y1="431.9776"
       x1="395.93182"
       gradientTransform="translate(-153.10964,383.21837)"
       gradientUnits="userSpaceOnUse"
       id="linearGradient4110"
       xlink:href="#linearGradient3972"
       inkscape:collect="always" />
    <filter
       id="filter4011"
       inkscape:collect="always"
       style="color-interpolation-filters:sRGB">
      <feGaussianBlur
         id="feGaussianBlur4013"
         stdDeviation="1.8058318"
         inkscape:collect="always" />
    </filter>
  </defs>
  <sodipodi:namedview
     id="base"
     pagecolor="#ffffff"
     bordercolor="#666666"
     borderopacity="1.0"
     inkscape:pageopacity="0.0"
     inkscape:pageshadow="2"
     inkscape:zoom="0.49497475"
     inkscape:cx="433.16035"
     inkscape:cy="372.60312"
     inkscape:document-units="px"
     inkscape:current-layer="layer1"
     showgrid="false"
     fit-margin-top="0"
     fit-margin-left="0"
     fit-margin-right="0"
     fit-margin-bottom="0"
     inkscape:window-width="1366"
     inkscape:window-height="704"
     inkscape:window-x="0"
     inkscape:window-y="27"
     inkscape:window-maximized="1" />
  <metadata
     id="metadata7">
    <rdf:RDF>
      <cc:Work
         rdf:about="">
        <dc:format>image/svg+xml</dc:format>
        <dc:type
           rdf:resource="http://purl.org/dc/dcmitype/StillImage" />
        <dc:title></dc:title>
      </cc:Work>
    </rdf:RDF>
  </metadata>
  <g
     inkscape:label="Capa 1"
     inkscape:groupmode="layer"
     id="layer1"
     transform="translate(-781.92389,180.41684)">
    <rect
       style="fill:#f2f2f2;fill-opacity:1;stroke:none"
       id="rect4583"
       width="1024"
       height="500"
       x="781.92389"
       y="-180.41684"
       inkscape:export-filename="/home/nessa/prueba.png"
       inkscape:export-xdpi="90.023537"
       inkscape:export-ydpi="90.023537" />
    <rect
       style="fill:#a40000;fill-opacity:1;stroke:none"
       id="rect4577"
       width="1273.2531"
       height="732.73901"
       x="-1855.2158"
       y="-720.84729"
       transform="matrix(-0.95927423,0.28247647,-0.28247647,-0.95927423,0,0)" />
    <rect
       style="fill:#550000;fill-opacity:1;stroke:none"
       id="rect4575"
       width="670.73145"
       height="435.56647"
       x="-1515.545"
       y="-648.23163"
       transform="matrix(-0.95449878,0.29821483,-0.29821483,-0.95449878,0,0)" />
    <g
       id="g4569"
       transform="matrix(-2.0242943,0.01634881,-0.01634881,-2.0242943,1212.845,428.95752)">
      <ellipse
         inkscape:transform-center-y="13.268746"
         inkscape:transform-center-x="6.2238486"
         style="opacity:0.2;fill:#000000;fill-opacity:1;stroke-width:0.1;stroke-miterlimit:4;stroke-dasharray:none"
         id="path4567"
         transform="matrix(0.92508712,0.47347977,-0.74158222,1.448907,120.15841,-185.27777)"
         cx="190.41376"
         cy="234.13863"
         rx="25.75889"
         ry="23.738585" />
      <ellipse
         transform="matrix(1.0392157,0,0,1.1489362,-68.477359,-35.881864)"
         id="path3703"
         style="fill:#82a68e;fill-opacity:1;stroke-width:0.1;stroke-miterlimit:4;stroke-dasharray:none"
         cx="190.41376"
         cy="234.13863"
         rx="25.75889"
         ry="23.738585" />
      <ellipse
         style="fill:#629a90;fill-opacity:1;stroke-width:0.1;stroke-miterlimit:4;stroke-dasharray:none"
         id="path3705"
         transform="matrix(0.88235296,0,0,0.97551187,-38.608535,4.7234699)"
         cx="190.41376"
         cy="234.13863"
         rx="25.75889"
         ry="23.738585" />
      <path
         id="path4477"
         d="m 129.40625,209.96875 c -10.68865,0 -19.63566,7.52747 -22.0625,17.65625 4.34723,-4.63716 10.49046,-7.53125 17.28125,-7.53125 13.18536,0 23.875,10.87836 23.875,24.3125 0,0.44069 -0.009,0.87758 -0.0312,1.3125 2.31483,-3.62752 3.65625,-7.94447 3.65625,-12.59375 0,-12.78941 -10.16618,-23.15625 -22.71875,-23.15625 z"
         style="fill:#2d8587;fill-opacity:1;stroke-width:0.1;stroke-miterlimit:4;stroke-dasharray:none"
         inkscape:connector-curvature="0" />
    </g>
    <g
       id="g4541"
       transform="matrix(-2.0242943,0.01634881,-0.01634881,-2.0242943,2510.6341,386.779)">
      <ellipse
         transform="matrix(1,0,0,1.0170316,218.48477,-9.8127297)"
         id="path4481"
         style="fill:#a7d276;fill-opacity:1;stroke-width:0.1;stroke-miterlimit:4;stroke-dasharray:none"
         cx="406.5864"
         cy="175.80231"
         rx="107.07617"
         ry="103.79317" />
      <ellipse
         style="opacity:0.16030537;fill:#ececec;fill-opacity:1;stroke-width:0.1;stroke-miterlimit:4;stroke-dasharray:none"
         id="path4539"
         cx="625.07117"
         cy="168.98376"
         rx="70.147606"
         ry="69.154945" />
      <path
         id="path4532"
         d="m 625.0625,80.34375 c -49.65238,0 -89.90625,39.67526 -89.90625,88.625 0,48.94974 40.25387,88.65625 89.90625,88.65625 49.65238,0 89.90625,-39.70651 89.90625,-88.65625 0,-48.94974 -40.25387,-88.625 -89.90625,-88.625 z m 0,2 c 48.53659,0 87.90625,38.77525 87.90625,86.625 0,47.84975 -39.36966,86.65625 -87.90625,86.65625 -48.53659,0 -87.875,-38.8065 -87.875,-86.65625 0,-47.84975 39.33841,-86.625 87.875,-86.625 z"
         style="fill:#c83737;fill-opacity:1;stroke-width:0.1;stroke-miterlimit:4;stroke-dasharray:none"
         inkscape:connector-curvature="0" />
      <path
         style="opacity:0.1;fill:#f9f9f9;fill-opacity:1;stroke-width:0.1;stroke-miterlimit:4;stroke-dasharray:none"
         d="m 518.125,163.46875 c -0.0957,1.83001 -0.125,3.64651 -0.125,5.5 0,58.29969 47.92596,105.5625 107.0625,105.5625 47.91846,0 88.48978,-31.02186 102.15625,-73.8125 -22.26605,26.86714 -56.12553,44.03125 -94.0625,44.03125 -53.42716,0 -98.79413,-34.01707 -115.03125,-81.28125 z"
         id="path4562"
         inkscape:connector-curvature="0" />
    </g>
    <rect
       style="fill:#ff6600;fill-opacity:1;stroke:none"
       id="rect4579"
       width="122.69477"
       height="337.41061"
       x="-1644.9071"
       y="-217.30435"
       transform="matrix(-0.99996739,0.00807604,-0.00807604,-0.99996739,0,0)" />
    <rect
       y="-391.71201"
       x="-1611.5022"
       height="337.41061"
       width="122.69477"
       id="rect4581"
       style="fill:#ff7f2a;fill-opacity:1;stroke:none"
       transform="matrix(-0.99327946,0.11574071,-0.11574071,-0.99327946,0,0)" />
    <g
       transform="matrix(0.21716965,0,0,0.21716965,1194.4015,-124.43064)"
       id="layer1-3"
       inkscape:label="Capa 1">
      <g
         transform="matrix(2.4763768,0,0,2.4763768,-339.56665,-1214.1165)"
         id="g4087">
        <path
           inkscape:connector-curvature="0"
           style="opacity:0.12999998;fill:#000000;fill-opacity:1;stroke:none"
           d="m 283.69362,706.18231 c -44.30274,-19.30194 -99.1969,8.61386 -122.60954,62.3517 -23.41266,53.73784 -6.47788,112.94826 37.82486,132.2502 44.30275,19.30194 99.19689,-8.61386 122.60954,-62.3517 23.41265,-53.73784 6.47789,-112.94825 -37.82486,-132.2502 z"
           id="path4365" />
        <path
           transform="matrix(0.51298074,0,0,0.50673462,82.197506,628.84258)"
           inkscape:transform-center-y="-5.5724301"
           inkscape:transform-center-x="3.426891"
           d="m 417.14286,513.79075 -51.41485,23.528 -51.25277,23.87902 -55.4249,-11.18634 -55.5001,-10.80709 -38.26452,-41.62788 -38.54827,-41.36526 -6.4884,-56.16898 -6.87232,-56.1233 27.76608,-49.25544 27.42863,-49.44416 51.41485,-23.528 51.25276,-23.87902 55.42491,11.18634 55.50009,10.80709 38.26453,41.62788 38.54826,41.36526 6.4884,56.16898 6.87232,56.1233 -27.76607,49.25545 z"
           inkscape:randomized="0"
           inkscape:rounded="0"
           inkscape:flatsided="false"
           sodipodi:arg2="1.1382122"
           sodipodi:arg1="0.82405293"
           sodipodi:r2="173.82558"
           sodipodi:r1="182.97429"
           sodipodi:cy="379.50504"
           sodipodi:cx="292.85715"
           sodipodi:sides="10"
           id="path3931"
           style="opacity:0.4;fill:#000000;fill-opacity:1;stroke:none;filter:url(#filter4011)"
           sodipodi:type="star" />
        <path
           sodipodi:type="star"
           style="fill:#689f38;fill-opacity:1;stroke:none"
           id="path3932"
           sodipodi:sides="10"
           sodipodi:cx="292.85715"
           sodipodi:cy="379.50504"
           sodipodi:r1="182.97429"
           sodipodi:r2="173.82558"
           sodipodi:arg1="0.82405293"
           sodipodi:arg2="1.1382122"
           inkscape:flatsided="false"
           inkscape:rounded="0"
           inkscape:randomized="0"
           d="m 417.14286,513.79075 -51.41485,23.528 -51.25277,23.87902 -55.4249,-11.18634 -55.5001,-10.80709 -38.26452,-41.62788 -38.54827,-41.36526 -6.4884,-56.16898 -6.87232,-56.1233 27.76608,-49.25544 27.42863,-49.44416 51.41485,-23.528 51.25276,-23.87902 55.42491,11.18634 55.50009,10.80709 38.26453,41.62788 38.54826,41.36526 6.4884,56.16898 6.87232,56.1233 -27.76607,49.25545 z"
           inkscape:transform-center-x="3.3870632"
           inkscape:transform-center-y="-5.5076601"
           transform="matrix(0.50701911,0,0,0.50084558,83.943408,630.26986)" />
        <path
           id="path3926"
           d="m 232.42759,732.84327 c -48.32492,0 -87.5,39.17508 -87.5,87.5 0,48.32493 39.17508,87.5 87.5,87.5 48.32493,0 87.5,-39.17507 87.5,-87.5 0,-48.32492 -39.17507,-87.5 -87.5,-87.5 z"
           style="fill:#8bc34a;fill-opacity:1;stroke:none"
           inkscape:connector-curvature="0" />
        <path
           style="fill:#ffeee8;fill-opacity:1;stroke:none"
           d="m 246.54661,751.28087 c -13.36152,0 -25.27911,5.96062 -33,15.25 -1.88195,-1.27108 -4.17823,-2.03125 -6.65625,-2.03125 -6.38514,0 -11.5625,4.97917 -11.5625,11.09375 0,0.61219 0.0877,1.19609 0.1875,1.78125 -17.20356,5.08159 -29.6875,20.41989 -29.6875,38.5625 0,16.29089 10.0809,30.31292 24.59375,36.6875 -0.51234,1.25147 -0.8125,2.60582 -0.8125,4.03125 0,6.11458 5.17736,11.0625 11.5625,11.0625 1.4913,0 2.90989,-0.28887 4.21875,-0.78125 0.5318,5.64213 5.46973,10.0625 11.5,10.0625 1.65778,0 3.23089,-0.33572 4.65625,-0.9375 4.58098,4.34069 10.89013,7.03125 17.84375,7.03125 11.21932,0 20.72073,-6.98543 24.0625,-16.65625 11.36412,-2.40289 19.875,-12.11366 19.875,-23.71875 0,-3.28255 -0.7048,-6.39389 -1.9375,-9.25 4.89329,-2.20371 8.5,-9.53837 8.5,-18.25 0,-4.73985 -1.08536,-9.05436 -2.84375,-12.375 1.06791,-3.55217 1.625,-7.30627 1.625,-11.1875 0,-22.28863 -18.85014,-40.375 -42.125,-40.375 z"
           id="path3934"
           inkscape:connector-curvature="0" />
        <rect
           transform="matrix(0.88276264,0.46981925,-0.46981925,0.88276264,0,0)"
           style="fill:#689f38;fill-opacity:1;stroke:none"
           id="rect4010"
           width="7.1428657"
           height="1.4285716"
           x="548.62573"
           y="645.75641"
           rx="0"
           ry="1.4285716" />
        <rect
           style="fill:#689f38;fill-opacity:1;stroke:none"
           id="rect3998"
           width="7.1428657"
           height="1.4285716"
           x="725.54486"
           y="357.30005"
           rx="0"
           ry="1.4285716"
           transform="matrix(0.65541921,0.75526529,-0.75526529,0.65541921,0,0)" />
        <rect
           transform="matrix(0.58573384,0.81050347,-0.81050347,0.58573384,0,0)"
           style="fill:#689f38;fill-opacity:1;stroke:none"
           id="rect4006"
           width="7.1428657"
           height="1.4285716"
           x="812.02808"
           y="242.68427"
           rx="0"
           ry="1.4285716" />
        <rect
           transform="matrix(0.50918371,-0.86065786,0.86065786,0.50918371,0,0)"
           style="fill:#689f38;fill-opacity:1;stroke:none"
           id="rect4008"
           width="7.1428657"
           height="1.4285716"
           x="-538.12396"
           y="596.41034"
           rx="0"
           ry="1.4285716" />
        <path
           style="fill:#ff5722;fill-opacity:1;stroke:none"
           d="m 202.9683,791.17377 c -18.67391,23.96257 -21.29061,55.04794 -9.23768,79.57314 25.09427,0.36506 51.86731,-12.35902 70.39297,-36.13134 16.96396,-21.76833 23.23128,-47.93665 19.13469,-70.73871 -28.1199,-8.16103 -60.39493,1.76737 -80.28998,27.29691 z"
           id="path3957"
           inkscape:connector-curvature="0" />
        <path
           style="fill:#ffe024;fill-opacity:1;stroke:none"
           d="m 244.38538,786.05246 c 0,0 1.01016,-11.11167 -1.51522,-12.6269 -2.52539,-1.51523 -2.52539,5.05076 -2.52539,5.05076 z"
           id="path3980"
           inkscape:connector-curvature="0" />
        <path
           inkscape:connector-curvature="0"
           id="path3982"
           d="m 230.14037,795.00642 c 0,0 -4.55323,-10.18616 -7.49703,-10.27273 -2.94381,-0.0866 0.26739,5.64059 0.26739,5.64059 z"
           style="fill:#ffe024;fill-opacity:1;stroke:none" />
        <path
           style="fill:#ffe024;fill-opacity:1;stroke:none"
           d="m 216.98223,809.63881 c 0,0 -8.64379,-7.05511 -11.31273,-5.81003 -2.66897,1.24505 2.77276,4.91929 2.77276,4.91929 z"
           id="path3984"
           inkscape:connector-curvature="0" />
        <path
           inkscape:connector-curvature="0"
           id="path3986"
           d="m 209.06079,824.23202 c 0,0 -10.50898,-3.74846 -12.60595,-1.68057 -2.09701,2.06788 4.26168,3.70483 4.26168,3.70483 z"
           style="fill:#ffe024;fill-opacity:1;stroke:none" />
        <path
           style="fill:#ffe024;fill-opacity:1;stroke:none"
           d="m 220.17385,836.23738 c 0,0 7.13457,8.57832 5.91417,11.25864 -1.22037,2.68035 -4.94467,-2.72725 -4.94467,-2.72725 z"
           id="path3988"
           inkscape:connector-curvature="0" />
        <path
           inkscape:connector-curvature="0"
           id="path3990"
           d="m 231.79967,826.64479 c 0,0 13.00427,6.68872 12.76156,10.28904 -0.24266,3.60034 -7.47516,-0.95463 -7.47516,-0.95463 z"
           style="fill:#ffe024;fill-opacity:1;stroke:none" />
        <path
           style="fill:#ffe024;fill-opacity:1;stroke:none"
           d="m 245.6779,814.32249 c 0,0 12.23086,3.43452 12.98787,7.49989 0.75703,4.0654 -6.26616,1.22967 -6.26616,1.22967 z"
           id="path3992"
           inkscape:connector-curvature="0" />
        <path
           inkscape:connector-curvature="0"
           id="path3994"
           d="m 255.62375,800.44741 c 0,0 11.11289,0.99666 12.15122,3.75262 1.03836,2.75597 -5.42144,1.57978 -5.42144,1.57978 z"
           style="fill:#ffe024;fill-opacity:1;stroke:none" />
        <path
           style="fill:#ffe024;fill-opacity:1;stroke:none"
           d="m 260.80093,789.7826 c 0,0 10.94531,-2.16559 12.71609,0.18766 1.77081,2.35325 -4.75925,3.03928 -4.75925,3.03928 z"
           id="path3996"
           inkscape:connector-curvature="0" />
        <path
           style="fill:url(#linearGradient4110);fill-opacity:1;stroke:none"
           d="m 261.64036,761.09337 c -21.87302,0.54613 -43.76621,10.9466 -58.6875,30.09375 -18.67391,23.96257 -21.27168,55.0373 -9.21875,79.5625 -0.008,-0.0136 0.007,-0.0487 0,-0.0625 6.76043,-17.44886 17.48229,-36.33421 31.6875,-54.5625 18.16653,-23.31149 38.7647,-41.40032 57.84375,-52.1875 -0.004,-0.0202 0.004,-0.0424 0,-0.0625 -7.02997,-2.04026 -14.33399,-2.96329 -21.625,-2.78125 z m 13.90625,55 c -0.5886,1.23979 -1.16529,2.46153 -1.8125,3.6875 0.6436,-1.2203 1.22703,-2.45352 1.8125,-3.6875 z"
           id="path3969"
           inkscape:connector-curvature="0" />
        <rect
           ry="1.4285716"
           rx="0"
           y="564.43536"
           x="-605.84094"
           height="1.4285716"
           width="7.1428657"
           id="rect4000"
           style="fill:#689f38;fill-opacity:1;stroke:none"
           transform="matrix(0.50918371,-0.86065786,0.86065786,0.50918371,0,0)" />
        <rect
           transform="matrix(0.74184165,0.67057511,-0.67057511,0.74184165,0,0)"
           style="fill:#689f38;fill-opacity:1;stroke:none"
           id="rect4002"
           width="7.1428657"
           height="1.4285716"
           x="758.18549"
           y="474.37448"
           rx="0"
           ry="1.4285716" />
        <rect
           ry="1.4285716"
           rx="0"
           y="-875.83984"
           x="123.97761"
           height="1.4285716"
           width="7.1428657"
           id="rect4004"
           style="fill:#689f38;fill-opacity:1;stroke:none"
           transform="matrix(-0.90007441,0.43573622,-0.43573622,-0.90007441,0,0)" />
      </g>
    </g>
  </g>
</svg>
